<mxfile host="app.diagrams.net" agent="Mozilla/5.0 (Windows NT 10.0; Win64; x64) AppleWebKit/537.36 (KHTML, like Gecko) Chrome/137.0.0.0 Safari/537.36" version="28.2.0">
  <diagram name="Page-1" id="W_ea0AesWOVsjQ67CWeq">
    <mxGraphModel dx="1389" dy="723" grid="1" gridSize="10" guides="1" tooltips="1" connect="1" arrows="1" fold="1" page="1" pageScale="1" pageWidth="2336" pageHeight="1654" math="0" shadow="0">
      <root>
        <mxCell id="0" />
        <mxCell id="1" parent="0" />
        <mxCell id="vO9aaUbzrKcqEHiHucuZ-2" value="" style="rounded=0;whiteSpace=wrap;html=1;fillColor=#1ba1e2;strokeColor=#006EAF;fontColor=#ffffff;" vertex="1" parent="1">
          <mxGeometry x="300" y="210" width="320" height="210" as="geometry" />
        </mxCell>
        <mxCell id="vO9aaUbzrKcqEHiHucuZ-3" value="" style="ellipse;whiteSpace=wrap;html=1;aspect=fixed;fillColor=#fff2cc;strokeColor=#d6b656;" vertex="1" parent="1">
          <mxGeometry x="320" y="215" width="200" height="200" as="geometry" />
        </mxCell>
        <mxCell id="vO9aaUbzrKcqEHiHucuZ-5" value="主网" style="text;strokeColor=none;align=center;fillColor=none;html=1;verticalAlign=middle;whiteSpace=wrap;rounded=0;fontSize=16;" vertex="1" parent="1">
          <mxGeometry x="570" y="210" width="50" height="35" as="geometry" />
        </mxCell>
        <mxCell id="vO9aaUbzrKcqEHiHucuZ-6" value="" style="ellipse;whiteSpace=wrap;html=1;fillColor=#d5e8d4;strokeColor=#82b366;fillStyle=auto;fillOpacity=80;" vertex="1" parent="1">
          <mxGeometry x="350" y="270" width="260" height="145" as="geometry" />
        </mxCell>
        <mxCell id="vO9aaUbzrKcqEHiHucuZ-7" value="配电网" style="text;strokeColor=none;align=center;fillColor=none;html=1;verticalAlign=middle;whiteSpace=wrap;rounded=0;fontSize=16;" vertex="1" parent="1">
          <mxGeometry x="380" y="230" width="60" height="40" as="geometry" />
        </mxCell>
        <mxCell id="vO9aaUbzrKcqEHiHucuZ-8" value="&lt;font style=&quot;font-size: 16px;&quot;&gt;源网荷储&lt;/font&gt;&lt;div&gt;&lt;span style=&quot;font-size: 16px; background-color: transparent; color: light-dark(rgb(0, 0, 0), rgb(255, 255, 255));&quot;&gt;一体化&lt;/span&gt;&lt;/div&gt;" style="ellipse;whiteSpace=wrap;html=1;aspect=fixed;" vertex="1" parent="1">
          <mxGeometry x="360" y="310" width="70" height="70" as="geometry" />
        </mxCell>
        <mxCell id="vO9aaUbzrKcqEHiHucuZ-9" value="&lt;font style=&quot;font-size: 16px;&quot;&gt;微电网&lt;/font&gt;" style="ellipse;whiteSpace=wrap;html=1;aspect=fixed;" vertex="1" parent="1">
          <mxGeometry x="438" y="310" width="70" height="70" as="geometry" />
        </mxCell>
        <mxCell id="vO9aaUbzrKcqEHiHucuZ-10" value="&lt;font style=&quot;font-size: 16px;&quot;&gt;虚拟&lt;/font&gt;&lt;div&gt;&lt;font style=&quot;font-size: 16px;&quot;&gt;电厂&lt;/font&gt;&lt;/div&gt;" style="ellipse;whiteSpace=wrap;html=1;aspect=fixed;" vertex="1" parent="1">
          <mxGeometry x="509" y="287.5" width="55" height="55" as="geometry" />
        </mxCell>
      </root>
    </mxGraphModel>
  </diagram>
</mxfile>
